HIERARCHY
ROOT Hips
{
  OFFSET 267.745 86.9975 -272.335
  CHANNELS 6 Xposition Yposition Zposition Zrotation Xrotation Yrotation
  JOINT LeftUpLeg
  {
    OFFSET 8.64259 1.95398 -2.38835
    CHANNELS 3 Zrotation Xrotation Yrotation
    JOINT LeftLeg
    {
      OFFSET 43.7702 0 0
      CHANNELS 3 Zrotation Xrotation Yrotation
      JOINT LeftFoot
      {
        OFFSET 40.6238 0 0
        CHANNELS 3 Zrotation Xrotation Yrotation
        JOINT LeftToeBase
        {
          OFFSET 12.7242 0 0
          CHANNELS 3 Zrotation Xrotation Yrotation
          End Site
          {
            OFFSET 0 0 0
          }
        }
      }
    }
  }
  JOINT RightUpLeg
  {
    OFFSET -8.2249 1.95398 -2.59336
    CHANNELS 3 Zrotation Xrotation Yrotation
    JOINT RightLeg
    {
      OFFSET 43.5653 0 0
      CHANNELS 3 Zrotation Xrotation Yrotation
      JOINT RightFoot
      {
        OFFSET 40.6238 0 0
        CHANNELS 3 Zrotation Xrotation Yrotation
        JOINT RightToeBase
        {
          OFFSET 12.7242 0 0
          CHANNELS 3 Zrotation Xrotation Yrotation
          End Site
          {
            OFFSET 0 0 0
          }
        }
      }
    }
  }
  JOINT Spine
  {
    OFFSET 0.165834 0.87714 6.61349
    CHANNELS 3 Zrotation Xrotation Yrotation
    JOINT Spine1
    {
      OFFSET 7.38963 1.71661e-005 0
      CHANNELS 3 Zrotation Xrotation Yrotation
      JOINT Spine2
      {
        OFFSET 11.9445 1.14441e-005 0
        CHANNELS 3 Zrotation Xrotation Yrotation
        JOINT Spine3
        {
          OFFSET 14.7254 4.19617e-005 0
          CHANNELS 3 Zrotation Xrotation Yrotation
          JOINT Spine4
          {
            OFFSET 10.9679 0 0
            CHANNELS 3 Zrotation Xrotation Yrotation
            JOINT RightShoulder
            {
              OFFSET 2.46616 -1.6653 3.69651
              CHANNELS 3 Zrotation Xrotation Yrotation
              JOINT RightArm
              {
                OFFSET 13.0012 0 0
                CHANNELS 3 Zrotation Xrotation Yrotation
                JOINT RightForeArm
                {
                  OFFSET 28.7848 1.52588e-005 0
                  CHANNELS 3 Zrotation Xrotation Yrotation
                  JOINT RightHand
                  {
                    OFFSET 26.5688 1.52588e-005 0
                    CHANNELS 3 Zrotation Xrotation Yrotation
                    End Site
                    {
                      OFFSET 0 0 0
                    }
                  }
                }
              }
            }
            JOINT LeftShoulder
            {
              OFFSET 2.38034 -1.29275 -3.7523
              CHANNELS 3 Zrotation Xrotation Yrotation
              JOINT LeftArm
              {
                OFFSET 16.3182 6.10352e-005 0
                CHANNELS 3 Zrotation Xrotation Yrotation
                JOINT LeftForeArm
                {
                  OFFSET 27.0901 0 0
                  CHANNELS 3 Zrotation Xrotation Yrotation
                  JOINT LeftHand
                  {
                    OFFSET 24.5451 1.52588e-005 0
                    CHANNELS 3 Zrotation Xrotation Yrotation
                    End Site
                    {
                      OFFSET 0 0 0
                    }
                  }
                }
              }
            }
            JOINT Neck
            {
              OFFSET 5.0226 -0.0266342 0
              CHANNELS 3 Zrotation Xrotation Yrotation
              JOINT Head
              {
                OFFSET 6.69364 2.86102e-005 0
                CHANNELS 3 Zrotation Xrotation Yrotation
                End Site
                {
                  OFFSET 0 0 0
                }
              }
            }
          }
        }
      }
    }
  }
}
MOTION
Frames:	9
Frame Time:	0.0416667
-163.497 91.9775 150.72 99.0222 43.7083 85.8395 -178.88 19.7927 88.3973 -7.64652 9.02428 1.4939 57.4152 -0.343931 4.2389 48.7445 -1.71243 8.78569 174.883 -7.2619 90.5966 -30.6236 -7.80597 -0.675495 68.3947 3.59275 19.9875 40.124 -2.74307 4.13774 0.544698 7.75542 -90.5675 11.3663 0.819242 -1.21235 -0.305032 0.765085 -1.24722 -22.8394 1.14569 -0.910105 -2.82676 1.14571 -0.910112 101.676 -48.1996 -82.9478 30.2455 -9.82453 -7.47951 -11.4741 -9.83974 -44.6819 -14.0484 -0.403974 -1.89302 -79.9273 -54.5961 93.8719 -30.8325 -11.6785 -1.01734 3.9262 46.7863 -3.15563 -10.941 -0.0921502 -4.34839 7.27643 3.53161 -8.29735 -22.672 3.01074 13.1382 
-155.391 90.4282 142.666 100.139 42.2994 83.9497 -179.492 21.2993 86.7087 -21.6221 15.9334 1.76162 51.3063 -4.71319 10.3857 46.2529 -1.71675 4.42314 173.098 -8.96088 86.4398 -37.938 -11.9014 -1.33845 53.2423 9.41488 23.9904 45.6144 -3.28069 14.9104 0.607904 7.77666 -90.166 11.3251 1.1325 -0.442061 -0.345455 1.11195 -0.491488 -22.8847 1.21298 -0.0812177 -2.87207 1.21298 -0.08122 101.825 -49.0912 -82.7057 31.5931 -10.2847 -5.35771 -12.4327 -11.95 -42.8617 -13.2879 -0.44614 -1.32328 -79.8109 -53.0563 93.9856 -31.2091 -11.4097 -1.5017 4.52175 45.9279 -4.05461 -10.5707 -0.122609 -3.92888 8.47013 3.9854 -10.7008 -24.6726 3.83808 13.0573 
-147.984 89.9116 135.363 103.612 43.3116 78.7603 -178.994 18.4912 82.9005 -34.3572 16.9059 1.50482 58.4371 0.367374 16.3228 38.9273 -1.12615 -1.58573 171.972 0.211195 82.3237 -59.3357 -15.9882 -1.90581 39.4586 14.5203 20.1815 17.4592 1.7019 5.23181 0.255065 8.01214 -89.6929 10.8451 0.649803 0.549332 -0.825815 0.673338 0.520201 -23.3606 0.454648 0.719218 -3.34794 0.454665 0.719221 102.207 -49.5474 -82.1011 33.7322 -9.80004 -3.76989 -9.50552 -14.0845 -35.6006 -14.0046 -0.604971 -0.145785 -80.3683 -52.4228 93.1411 -30.8789 -9.21773 -6.7647 4.40223 44.6814 -4.81054 -9.77213 -0.0967101 -4.29507 8.64815 4.76174 -11.6528 -24.68 4.48343 14.9207 
-140.758 91.5457 128.198 105.038 45.6632 79.2788 -178.442 10.3533 84.3759 -34.3418 18.7277 2.82183 64.0388 5.08031 17.3165 39.3275 -1.15604 -0.99101 171.565 12.5863 85.4988 -69.8511 -15.7071 -1.07893 43.7993 12.0475 14.9036 26.5704 0.865937 -2.53206 -0.121442 8.01746 -89.9002 10.8411 -0.195505 0.218526 -0.829829 -0.185713 0.226909 -23.3652 -0.252146 0.149666 -3.35252 -0.252162 0.149659 101.862 -49.4333 -82.6436 34.5566 -8.53763 -2.40173 -5.43572 -16.5078 -25.8727 -14.0236 -0.756789 1.12332 -80.6224 -52.6989 92.7786 -29.833 -5.00652 -14.9905 5.0641 42.6902 -7.78681 -6.93278 -0.125701 -3.3291 6.45894 5.78805 -11.165 -24.5213 4.99136 16.1245 
-133.752 93.0413 121.582 105.307 50.4666 80.7989 -177.349 3.29069 87.2953 -32.0073 22.0974 4.12117 66.6212 7.41035 16.054 40.5155 -1.29466 -1.31257 169.219 20.4729 88.3531 -59.972 -8.95864 1.46473 52.2822 7.50367 14.5168 30.0225 -0.224939 -1.05979 -0.545838 7.92379 -90.1794 11.0254 -1.16972 -0.244856 -0.645046 -1.17934 -0.193135 -23.1835 -1.04205 -0.585113 -3.1709 -1.04204 -0.585124 101.648 -50.3334 -82.9726 34.2309 -5.214 1.21114 -3.71299 -18.8025 -20.1233 -12.0586 -0.761944 2.23305 -80.6342 -50.9038 92.6728 -29.8324 0.0488129 -22.858 8.19048 37.9438 -15.4119 -4.03372 -0.081457 -4.99583 6.93939 5.03583 -11.8916 -25.7752 4.37637 15.5117 
-126.847 93.9129 115.32 105.256 54.6862 79.8555 -176.532 -3.58413 87.7995 -27.7246 24.2479 4.63728 66.9265 8.1569 13.6123 43.2735 -1.58419 3.23045 170.985 20.9404 86.7984 -33.1278 -0.989297 2.93971 55.7562 6.7054 16.9848 35.162 -1.51395 -2.03153 -0.860839 7.91264 -90.1563 11.0486 -1.78598 -0.139798 -0.621062 -1.79042 -0.0610398 -23.165 -1.66139 -0.670251 -3.15234 -1.66139 -0.67025 102.117 -51.1889 -82.2425 34.0682 -1.46051 3.75561 -2.42857 -20.1081 -15.6302 -11.2449 -0.726375 2.32395 -80.8503 -49.9749 92.297 -28.0624 3.84507 -29.5832 10.3493 28.9738 -24.2237 -1.42017 -0.0973159 -5.1503 8.23474 3.78709 -11.6633 -25.9442 3.43318 14.3079 
-119.67 94.0256 108.905 104.9 58.1924 78.1218 -176.634 -9.22326 89.6418 -25.9459 27.8289 5.72223 64.1528 6.43471 10.2349 49.8913 -1.88568 6.28069 175.379 19.0984 83.7552 -11.2368 8.32541 0.195604 58.0687 8.25464 21.2589 35.3699 -1.53704 -3.39917 -1.04738 7.80103 -90.043 11.2733 -2.10433 0.122918 -0.396009 -2.09687 0.215441 -22.9442 -2.04395 -0.515477 -2.93157 -2.04395 -0.515485 102.635 -51.2113 -81.4454 34.6156 2.04249 6.92875 -1.86463 -19.277 -13.4086 -9.46514 -0.514699 1.21167 -81.3117 -49.7343 91.5805 -26.2968 6.11564 -34.0817 13.2156 27.5335 -30.6536 -0.413166 -0.109788 -5.57352 7.73873 2.4857 -10.739 -24.827 2.19293 13.5614 
-111.346 92.6922 101.57 105.193 57.2765 78.5426 -177.65 -11.7945 91.3461 -33.8973 28.2193 7.73092 59.1018 1.65044 5.19795 61.9418 -2.91881 5.26471 175.582 20.3347 85.1319 -16.6834 0.184571 0.714176 52.3462 10.2816 16.9413 36.4411 -1.82441 -2.43944 -0.908038 7.79512 -90.376 11.2795 -1.98204 -0.551484 -0.389965 -2.00439 -0.463693 -22.9339 -1.72468 -1.12182 -2.92124 -1.72466 -1.12181 102.115 -50.8421 -82.2465 33.5625 2.89483 7.64433 -0.465046 -19.7366 -10.6685 -12.3202 -0.831413 2.73606 -81.2327 -50.5804 91.7521 -26.737 6.78189 -31.4742 15.1013 26.3095 -34.6294 0.169973 -0.144692 -6.84079 10.6944 2.10826 -7.35037 -26.2488 1.13843 13.4013 
-103.058 91.7167 94.233 105.342 56.1458 81.3994 -178.155 -5.95673 95.385 -48.1956 15.8148 6.83517 41.0954 -9.2412 -7.19846 51.7687 -3.42707 -9.89 174.795 21.7221 88.9671 -31.4959 -7.22541 2.75819 55.3227 8.68658 9.64693 28.3854 -0.168412 2.85661 -0.854226 7.71693 -90.9861 11.4212 -2.16 -1.74588 -0.24896 -2.23474 -1.64912 -22.783 -1.53559 -2.31421 -2.77032 -1.53558 -2.3142 102.241 -50.5435 -82.0502 31.3146 3.26559 5.30247 0.251693 -19.3197 -9.43806 -14.2742 -1.12206 4.03316 -81.6474 -51.4794 91.1884 -29.1311 5.71707 -23.437 14.7098 28.3427 -32.3149 -0.711205 -0.119668 -6.37995 11.9237 2.68959 -5.80005 -26.5004 1.22915 14.1933 
